<svg id="Ebene_1" data-name="Ebene 1" xmlns="http://www.w3.org/2000/svg" viewBox="0 0 703.18 402.55"><defs><style>.cls-1{fill:#5896d0;}.cls-2{font-size:166.17px;}.cls-2,.cls-3{fill:#1d1d1b;font-family:ArialMT, Arial;}.cls-3{font-size:23.01px;}</style></defs><title>hello_logo</title><text x="-69.35" y="-96.36"/><polygon class="cls-1" points="594.33 68.33 594.3 191.65 615.02 151.4 655.18 169.26 655.18 90.65 594.33 68.33"/><polygon class="cls-1" points="538.59 82.58 538.59 135.45 512.63 127.23 512.63 219.15 544.65 216.38 544.65 86.29 589.01 77.54 589.03 72.68 538.59 82.58"/><polygon class="cls-1" points="451.38 141.76 451.38 219.02 455.38 219 455.38 144.61 508 132.52 508 128.65 451.38 141.76"/><path class="cls-1" d="M116.8,379.26a1.25,1.25,0,0,1,1.6-.33,544.16,544.16,0,0,0,72.17,34.41,502.6,502.6,0,0,0,78.57,23.3c53.73,11.24,110.15,13.49,164.82,3.53a408.33,408.33,0,0,0,40.44-9.79,372.53,372.53,0,0,0,39-14.53,341.23,341.23,0,0,0,36.79-19.38l8.77-5.59c2.92-1.88,5.67-4,8.53-5.94,5.78-3.88,11.06-8.34,16.59-12.57a343,343,0,0,0,30.3-28.53,346.26,346.26,0,0,0,26.33-32.32,361.32,361.32,0,0,0,39.68-72.17,1.23,1.23,0,0,1,1.48-.67h0a1.13,1.13,0,0,1,.8,1.36,361.91,361.91,0,0,1-31.09,77.47,354.13,354.13,0,0,1-23.12,36.54,354.76,354.76,0,0,1-28.27,33.68c-5.31,5.16-10.4,10.57-16.08,15.43-2.8,2.47-5.51,5-8.41,7.42l-8.73,7.1a362.86,362.86,0,0,1-37.52,25.59,400.73,400.73,0,0,1-41,20.79,445.82,445.82,0,0,1-43.6,15.86C385.25,497.8,321.42,502.41,259,496.44a579.48,579.48,0,0,1-92.63-16.56c-29.9-7.86-67.66-22.52-96.3-34.74a1.08,1.08,0,0,1-.48-1.66Z" transform="translate(-69.35 -96.36)"/><text x="-69.35" y="-96.36"/><text class="cls-2" transform="translate(38.96 226.08) scale(1.09 1)">hello</text><text class="cls-3" transform="translate(50.91 263.96) scale(1.09 1)">by Die unabhängige Immobilien Redkation</text></svg>